<svg width="367" height="229" viewBox="0 0 367 229" fill="none" xmlns="http://www.w3.org/2000/svg">
<path d="M281.243 114.189C281.243 166.044 237.459 208.115 183.405 208.115C129.351 208.115 85.5663 166.044 85.5663 114.189C85.5663 62.3335 129.351 20.2624 183.405 20.2624C237.459 20.2624 281.243 62.3335 281.243 114.189Z" stroke="black"/>
<path d="M290.161 114.188C290.161 170.895 242.281 216.898 183.175 216.898C124.069 216.898 76.1886 170.895 76.1886 114.188C76.1886 57.4823 124.069 11.4785 183.175 11.4785C242.281 11.4785 290.161 57.4823 290.161 114.188Z" stroke="black"/>
<path d="M149.101 56.4659L151.061 58.0345L153.348 62.4264L166.417 57.0933L182.752 56.4659L180.792 69.6417L177.525 72.7787L180.792 81.2489L187.979 77.7981H195.167L202.354 75.6021L203.661 69.6417L198.76 55.5248L204.968 49.5644L211.502 50.8192L219.67 43.2902L227.837 44.8587L230.124 52.3877L228.817 55.5248L240.905 60.8578L252.34 58.3482L243.846 74.3473V79.3666L249.4 89.719L232.738 101.64L260.508 105.404L278.477 113.247L281.09 121.09L273.576 120.462L254.954 128.305L241.232 122.345L235.678 111.992L223.263 117.953L225.877 128.305L223.263 129.56L225.224 135.207L230.124 136.148L235.678 158.107L230.124 180.067L214.442 170.342L209.868 156.539L204.314 128.305L202.354 120.462L196.473 117.953L189.286 123.286L180.138 122.345L176.218 118.894H169.03L171.317 123.286L173.277 143.363L166.743 169.087L155.635 155.598H152.368L151.061 164.068L138.647 156.539L137.34 138.344L141.914 130.501L145.507 128.305L144.201 121.404L134.073 116.384L126.885 117.953L100.422 109.483L86.0469 102.581L102.709 93.4835L114.47 90.9738L125.905 92.5424L136.686 96.6206L137.34 86.5819L141.914 65.8772L144.201 61.4853H149.101V56.4659Z" fill="#B1040F" stroke="black"/>
<path d="M214.114 54.2703L206.927 55.2114V61.4856L204.313 63.9952L205.62 71.2105L212.481 76.5436L220.648 82.8177L225.222 79.3669L223.589 73.7202L218.361 70.2694L216.728 58.0348L214.114 54.2703Z" fill="#6A6A31" stroke="black"/>
<path d="M151.06 91.9154L156.288 74.3477L164.455 81.563L160.862 87.5235V90.3469L169.683 91.9154L174.91 94.7388L171.97 97.5621H162.822L156.288 99.4444L158.575 102.581L152.694 109.169L159.882 117.953L156.288 119.835L151.06 117.953H144.853L140.606 112.306L147.793 107.915L137.339 106.346L138.972 101.64H147.793L152.694 94.7388L151.06 91.9154Z" fill="#6A6A31" stroke="black"/>
<path d="M137.109 31.0565L148.87 56.1532L151.157 58.0354L153.444 62.4273L166.513 56.7806L182.848 56.1532L180.888 69.6426L177.621 72.7797L180.888 81.2498L188.075 77.799L189.709 74.0345L185.135 47.6831L147.237 26.6646L137.109 31.0565Z" fill="#C64824" stroke="black"/>
<path d="M210.619 23.8404L204.738 49.5644L198.857 55.5249L203.758 69.6418L202.451 75.6022L195.264 77.7982H188.076L189.71 74.0337L185.136 47.6822L191.343 33.2516L198.531 21.017L210.619 23.8404Z" fill="#52AEC7" stroke="black"/>
<path d="M154.752 24.1541L147.237 26.6638L185.135 47.6822L191.343 33.2516L198.53 21.017L192.323 20.3896L185.135 20.0759L175.988 20.3896L168.8 21.017L162.266 22.2719L154.752 24.1541Z" fill="#0F4D5A" stroke="black"/>
<path d="M224.666 28.5464L219.766 43.2907L211.598 50.8197L204.737 49.5649L210.618 23.8408L216.825 25.7231L224.666 28.5464Z" fill="#B8AA92" stroke="black"/>
<path d="M258.644 53.957L252.436 58.3489L241.002 60.8585L228.914 55.5255L230.22 52.3884L227.933 44.8594L219.766 43.2909L224.666 28.8603L228.26 30.4289L233.487 33.2522L239.041 36.703L246.556 42.0361L251.783 46.7417L258.644 53.957Z" fill="#87968C" stroke="black"/>
<path d="M262.892 58.9761L258.645 53.9568L252.437 58.3487L243.943 74.3478V79.3671L249.497 89.4058L257.991 80.9356L271.386 72.7792L267.466 65.564L262.892 58.9761Z" fill="#C64824" stroke="black"/>
<path d="M278.573 113.247L281.186 121.09L281.513 113.561L281.186 107.286L280.206 99.4437L278.573 91.9148L276.612 84.6995L273.345 76.5431L271.385 72.7786L257.99 80.935L249.496 89.7188L232.834 101.64L260.604 105.404L278.573 113.247Z" fill="#0F4D5A" stroke="black"/>
<path d="M223.359 117.952L235.774 111.992L241.328 122.344L253.09 144.931L235.774 158.107L230.22 136.147L225.32 135.206L223.359 129.56L225.973 128.305L223.359 117.952Z" fill="#BBA888" stroke="black"/>
<path d="M255.049 128.305L241.327 122.344L253.089 144.931L272.038 154.656L275.958 145.559L278.245 138.344L280.205 129.56L281.186 121.09L273.671 120.462L255.049 128.305Z" fill="#52AEC7" stroke="black"/>
<path d="M272.039 154.657L253.09 144.932L235.775 158.107L230.221 180.067L240.022 191.047L246.883 186.027L254.724 178.812L261.911 170.656L268.118 161.558L272.039 154.657Z" fill="#87968C" stroke="black"/>
<path d="M128.288 36.3885L137.109 31.0555L149.197 56.4658V61.4852H144.297L142.01 65.8771L137.436 86.5818L136.782 96.6205L119.794 66.8182L116.527 45.1723L121.754 41.0941L128.288 36.3885Z" fill="#BBA888" stroke="black"/>
<path d="M109.666 52.0743L116.527 45.4864L119.794 66.8186L136.783 96.6208L126.002 92.5426L114.567 90.9741L102.479 93.4837L86.1436 102.581L87.4504 95.0523L89.4106 87.2096L92.351 79.0532L96.5981 70.5831L103.132 60.2307L109.666 52.0743Z" fill="#6A6A31" stroke="black"/>
<path d="M176.313 118.894H169.126L171.413 123.286L173.373 143.049L166.839 169.087L188.402 144.931L209.964 156.539L202.45 120.462L196.569 117.952L189.382 123.286L180.234 122.344L176.313 118.894Z" fill="#0F4D5A" stroke="black"/>
<path d="M191.996 168.46L188.402 144.932L209.965 156.539L214.538 170.342L230.22 180.067L240.021 191.047L230.22 197.007L220.092 201.399L210.291 204.536L191.996 168.46Z" fill="#6A6A31" stroke="black"/>
<path d="M166.838 169.087L188.401 145.245L191.995 168.46L196.569 177.557L178.273 192.929L153.117 175.361L151.157 164.068L152.463 155.598H155.73L166.838 169.087Z" fill="#52AEC7" stroke="black"/>
<path d="M178.273 192.929L196.569 177.557L210.29 204.536L207.677 205.477L201.143 206.732L195.915 207.673L188.401 208.301H180.233L173.046 207.673L178.273 192.929Z" fill="#C64824" stroke="black"/>
<path d="M151.159 164.068L138.744 156.539L120.776 186.655L131.23 193.871L140.378 198.89L151.813 203.282L163.574 206.419L173.049 207.674L178.276 192.929L153.12 175.362L151.159 164.068Z" fill="#B8AA92" stroke="black"/>
<path d="M142.011 130.501L145.605 128.305L144.298 121.404L123.389 135.207L97.9056 160.304L104.766 170.656L112.934 179.754L120.775 186.655L138.744 156.539L137.437 138.344L142.011 130.501Z" fill="#0F4D5A" stroke="black"/>
<path d="M100.519 109.483L86.144 102.582L85.8172 106.032L85.4905 113.248V121.718L86.7974 130.502L89.411 141.168L93.3315 151.52L97.9054 160.304L123.388 135.207L144.298 121.404L133.843 116.385L126.982 117.953L100.519 109.483Z" fill="#BBA888" stroke="black"/>
<path d="M365.998 145.369L288.063 128.532L289.037 120.424V113.876L365.998 114.188V145.369Z" fill="#AC975D" stroke="black"/>
<path d="M288.064 128.531L366 145.369V181.539L284.817 143.187L286.44 137.574L288.064 128.531Z" fill="#4D729C" stroke="black"/>
<path d="M366 212.409V181.54L284.817 143.187L282.869 149.111L366 212.409Z" fill="#87968C" stroke="black"/>
<path d="M365.999 228H321.186L276.698 162.519L278.647 159.089L281.244 153.476L282.868 149.111L365.999 212.097V228Z" fill="#AC975D" stroke="black"/>
<path d="M273.45 168.132L276.697 162.519L321.186 228H286.764L269.229 174.368L273.45 168.132Z" fill="#C4C4C4" stroke="black"/>
<path d="M286.764 227.688L269.229 174.369L265.657 178.734L262.085 182.787L258.513 186.217L262.085 227.688H286.764Z" fill="#D9E3E1" stroke="black"/>
<path d="M262.084 228L258.512 186.529L255.589 189.335L252.342 192.141L249.419 228H262.084Z" fill="#87968C" stroke="black"/>
<path d="M249.421 228L252.344 192.142L248.447 195.26L244.875 197.754L235.133 228H249.421Z" fill="#C4C4C4" stroke="black"/>
<path d="M235.133 228L244.875 197.754L242.601 199.313L238.705 201.808L234.808 203.99L221.494 228H235.133Z" fill="#D9E3E1" stroke="black"/>
<path d="M221.494 227.999L234.483 204.302L228.638 207.108L224.091 208.979L217.272 211.473L210.777 213.344L203.633 215.215L197.788 216.15L191.943 216.774L186.747 217.086H183.5V227.999H221.494Z" fill="#4D729C" stroke="black"/>
<path d="M365.998 82.7276L288.063 99.3814L289.037 107.4V113.876L365.998 113.568V82.7276Z" fill="#AC975D" stroke="black"/>
<path d="M288.064 99.3815L366 82.7277V46.9527L284.817 84.8865L286.44 90.4378L288.064 99.3815Z" fill="#4D729C" stroke="black"/>
<path d="M366 16.4208V46.9528L284.817 84.8866L282.869 79.0269L366 16.4208Z" fill="#87968C" stroke="black"/>
<path d="M365.999 1.00039H321.186L276.698 65.7654L278.647 69.1578L281.244 74.7091L282.868 79.0268L365.999 16.729V1.00039Z" fill="#AC975D" stroke="black"/>
<path d="M273.45 60.2139L276.697 65.7651L321.186 1.00014H286.764L269.229 54.0458L273.45 60.2139Z" fill="#C4C4C4" stroke="black"/>
<path d="M286.764 1.30881L269.229 54.046L265.657 49.7284L262.085 45.7191L258.513 42.3266L262.085 1.30881H286.764Z" fill="#D9E3E1" stroke="black"/>
<path d="M262.084 1.00039L258.512 42.0182L255.589 39.2426L252.342 36.4669L249.419 1.00039H262.084Z" fill="#87968C" stroke="black"/>
<path d="M249.421 1.00055L252.344 36.4671L248.447 33.3831L244.875 30.9158L235.133 1.00055H249.421Z" fill="#C4C4C4" stroke="black"/>
<path d="M235.133 1.00024L244.875 30.9155L242.601 29.3735L238.705 26.9062L234.808 24.7474L221.494 1.00024H235.133Z" fill="#D9E3E1" stroke="black"/>
<path d="M221.494 0.999996L234.483 24.4388L228.638 21.6631L224.091 19.8127L217.272 17.3454L210.777 15.495L203.633 13.6446L197.788 12.7194L191.943 12.1026L186.747 11.7942H183.5V0.999996H221.494Z" fill="#4D729C" stroke="black"/>
<path d="M1.00152 82.7276L78.9371 99.3814L77.9629 107.4V113.876L1.00152 113.568V82.7276Z" fill="#AC975D" stroke="black"/>
<path d="M78.936 99.3815L1.00041 82.7277V46.9527L82.1833 84.8865L80.5597 90.4378L78.936 99.3815Z" fill="#4D729C" stroke="black"/>
<path d="M0.999962 16.4208V46.9528L82.1829 84.8866L84.1313 79.0269L0.999962 16.4208Z" fill="#87968C" stroke="black"/>
<path d="M1.0004 1.00039H45.8134L90.3016 65.7654L88.3532 69.1578L85.7554 74.7091L84.1317 79.0268L1.0004 16.729V1.00039Z" fill="#AC975D" stroke="black"/>
<path d="M93.5499 60.2139L90.3026 65.7651L45.8143 1.00014H80.2359L97.7714 54.0458L93.5499 60.2139Z" fill="#C4C4C4" stroke="black"/>
<path d="M80.2356 1.30881L97.7712 54.046L101.343 49.7284L104.915 45.7191L108.487 42.3266L104.915 1.30881H80.2356Z" fill="#D9E3E1" stroke="black"/>
<path d="M104.916 1.00039L108.488 42.0182L111.411 39.2426L114.658 36.4669L117.581 1.00039H104.916Z" fill="#87968C" stroke="black"/>
<path d="M117.579 1.00055L114.656 36.4671L118.553 33.3831L122.125 30.9158L131.867 1.00055H117.579Z" fill="#C4C4C4" stroke="black"/>
<path d="M131.867 1.00024L122.125 30.9155L124.398 29.3735L128.295 26.9062L132.192 24.7474L145.506 1.00024H131.867Z" fill="#D9E3E1" stroke="black"/>
<path d="M145.506 0.999996L132.517 24.4388L138.362 21.6631L142.909 19.8127L149.728 17.3454L156.223 15.495L163.367 13.6446L169.212 12.7194L175.057 12.1026L180.253 11.7942H183.5V0.999996H145.506Z" fill="#4D729C" stroke="black"/>
<path d="M1.00152 145.369L78.9371 128.532L77.9629 120.424V113.876L1.00152 114.188V145.369Z" fill="#AC975D" stroke="black"/>
<path d="M78.936 128.531L1.00041 145.369V181.539L82.1833 143.187L80.5597 137.574L78.936 128.531Z" fill="#4D729C" stroke="black"/>
<path d="M0.999962 212.409V181.54L82.1829 143.187L84.1313 149.111L0.999962 212.409Z" fill="#87968C" stroke="black"/>
<path d="M1.0004 228H45.8134L90.3016 162.519L88.3532 159.089L85.7554 153.476L84.1317 149.111L1.0004 212.097V228Z" fill="#AC975D" stroke="black"/>
<path d="M93.5499 168.132L90.3026 162.519L45.8143 228H80.2359L97.7714 174.368L93.5499 168.132Z" fill="#C4C4C4" stroke="black"/>
<path d="M80.2356 227.688L97.7712 174.369L101.343 178.734L104.915 182.787L108.487 186.217L104.915 227.688H80.2356Z" fill="#D9E3E1" stroke="black"/>
<path d="M104.916 228L108.488 186.529L111.411 189.335L114.658 192.141L117.581 228H104.916Z" fill="#87968C" stroke="black"/>
<path d="M117.579 228L114.656 192.142L118.553 195.26L122.125 197.754L131.867 228H117.579Z" fill="#C4C4C4" stroke="black"/>
<path d="M131.867 228L122.125 197.754L124.398 199.313L128.295 201.808L132.192 203.99L145.506 228H131.867Z" fill="#D9E3E1" stroke="black"/>
<path d="M145.506 227.999L132.517 204.302L138.362 207.108L142.909 208.979L149.728 211.473L156.223 213.344L163.367 215.215L169.212 216.15L175.057 216.774L180.253 217.086H183.5V227.999H145.506Z" fill="#4D729C" stroke="black"/>
</svg>
