<svg width="384" height="622" viewBox="0 0 384 622" fill="none" xmlns="http://www.w3.org/2000/svg">
<rect width="384" height="621" fill="white"/>
<path d="M167 160L71.3996 215.525C42.7767 232.15 42.8828 273.525 71.5905 290.002L102.409 307.691C131.117 324.169 131.223 365.544 102.6 382.168L71.7847 400.066C43.0765 416.74 43.29 458.275 72.1681 474.653L101.703 491.403C130.609 507.797 130.788 549.385 102.023 566.027L7 621" stroke="black"/>
<path d="M222 82L124.329 156.211C101.6 173.48 101.698 207.695 124.524 224.835L176.476 263.843C199.302 280.983 199.4 315.198 176.671 332.467L124.601 372.031C101.79 389.362 101.987 423.733 124.994 440.802L175.916 478.583C198.95 495.672 199.114 530.095 176.244 547.403L79 621" stroke="black"/>
<path d="M312 160L215.904 215.467C187.147 232.065 187.253 273.608 216.094 290.059L246.906 307.634C275.747 324.086 275.853 365.628 247.096 382.227L216.292 400.007C187.449 416.655 187.663 458.357 216.674 474.708L246.196 491.347C275.235 507.714 275.414 549.47 246.515 566.085L151 621" stroke="black"/>
<path d="M308 114L246.574 188.736C233.474 204.675 233.54 227.673 246.733 243.535L285.267 289.867C298.46 305.73 298.527 328.727 285.426 344.666L246.71 391.772C233.549 407.785 233.684 430.908 247.032 446.765L284.923 491.783C298.291 507.664 298.404 530.829 285.192 546.84L224 621" stroke="black"/>
<path d="M283.162 302.801L284.119 298.754L284.795 298.649L285.419 299.561L286.466 300.585L288.694 301.594L290.929 301.934L294.412 300.953L296.283 299.494L295.281 297.599L293.877 295.155L294.5 293.971L295.926 291.262L296.17 289.618L296.385 286.981L294.544 286.287L291.773 285.39L288.58 285.429L288.082 284.147L287.213 281.735L284.762 278.791L282.051 276.734L280.395 276.08L278.887 275.144L277.951 274.563L277.298 274.756L276.912 276.537L275.932 278.399L274.328 281.446L273.705 284.203L272.472 287.33L272.517 288.556L273.045 290.83L272.822 292.563L270.246 294.182L268.731 297.06L267.261 298.543L268.561 299.35L269.809 301.172L270.64 301.689L271.963 303.109L274.51 304.69C274.884 304.923 276.167 306.917 276.761 307.884L278.825 307.37L281.647 305.678L283.162 302.801Z" fill="#B45B01" fill-opacity="0.67" stroke="#C73A2A" stroke-width="2"/>
<path d="M115.447 519.159L118.995 515.68L119.791 516.091L119.901 517.521L120.398 519.395L122.182 522.161L124.389 524.236L128.767 525.895L131.697 525.816L131.788 523.069L131.787 519.443L133.197 518.688L136.421 516.964L137.707 515.439L139.576 512.858L138.014 510.717L135.574 507.651L132.095 505.232L132.352 503.513L132.909 500.332L132.085 495.378L130.429 491.148L129.043 489.191L127.993 487.056L127.342 485.73L126.515 485.428L124.991 486.987L122.775 488.172L119.148 490.112L116.762 492.504L113.487 494.814L112.775 496.125L111.934 498.9L110.617 500.535L106.824 500.238L103.399 502.07L100.887 502.483L101.793 504.324L102.011 507.184L102.59 508.362L103.139 510.859L104.914 514.468C105.174 514.998 105.323 518.062 105.366 519.528L107.919 520.581L112.022 520.991L115.447 519.159Z" fill="#B45B01" fill-opacity="0.67" stroke="#C73A2A" stroke-width="2"/>
<path d="M130.765 247.013L130.254 245.199L131.659 247.273L130.94 250.187L129.686 251.383L129.957 254.169C130.8 254.9 132.626 256.486 133.194 256.984C133.761 257.482 136.057 258.719 137.134 259.275L143.694 262.224L146.259 261.93L146.415 256.25L146.33 251.541L144.569 247.802L148.86 246.344L152.002 242.157L154.181 240.709L155.908 237.985L158.342 233.176L156.027 233.231L151.196 231.826L148.476 231.971L147.102 233.653L144.458 234.654L141.595 233.821L144.973 227.517L147.118 223.873L145.886 216.436L146.509 213.911L141.681 215.213L135.885 218.107L134.542 219.278L132.281 224.553L129.092 227.373C128.477 225.98 127.057 222.721 126.295 220.834C125.534 218.947 123.661 218.819 122.819 218.991C121.431 217.754 118.639 215.339 118.581 215.572L117.886 218.388L117.581 225.065L116.43 229.727L117.203 232.034C117.837 232.704 119.066 234.2 118.912 234.821C118.759 235.443 119.113 236.337 119.31 236.707L118.265 237.444L115.693 238.153L112.541 240.046L109.558 245.528L113.176 248.35L121.28 251.645L122.285 254.956L125.306 252.816L126.823 250.551L130.357 248.664L130.765 247.013Z" fill="#D4BD3D" fill-opacity="0.67" stroke="#C73A2A" stroke-width="2"/>
<path d="M199.95 424.131L198.775 422.942L200.772 423.892L201.433 426.571L200.941 428.149L202.335 430.231C203.315 430.392 205.441 430.744 206.103 430.858C206.766 430.971 209.117 430.811 210.21 430.716L216.68 429.792L218.597 428.278L216.317 423.679L214.258 419.972L211.273 417.874L214.072 414.573L214.802 409.673L215.924 407.433L216.146 404.403L216.048 399.361L214.229 400.559L209.789 401.85L207.684 403.323L207.302 405.347L205.621 407.462L202.99 408.227L203.011 401.524L203.177 397.553L199.049 392.247L198.476 389.926L195.184 393.371L191.795 398.566L191.22 400.168L191.653 405.495L190.308 409.33C189.228 408.528 186.719 406.642 185.314 405.52C183.909 404.398 182.364 405.229 181.767 405.786C180.138 405.494 176.893 404.964 176.946 405.178L177.585 407.767L180.167 413.235L181.224 417.52L182.815 418.971C183.603 419.188 185.214 419.766 185.355 420.337C185.496 420.909 186.157 421.444 186.47 421.64L185.95 422.748L184.202 424.595L182.494 427.675L182.439 433.527L186.514 433.969L194.359 432.549L196.56 434.684L198.06 431.474L198.309 428.913L200.324 425.649L199.95 424.131Z" fill="#D4BD3D" fill-opacity="0.67" stroke="#C73A2A" stroke-width="2"/>
</svg>
