<svg width="197" height="197" viewBox="0 0 197 197" fill="none" xmlns="http://www.w3.org/2000/svg">
<mask id="path-1-inside-1_250_351" fill="white">
<path d="M183.473 106.148C179.095 153.419 137.225 188.19 89.9539 183.812C42.683 179.434 7.91145 137.564 12.2895 90.2933C16.6676 43.0224 58.5374 8.25082 105.808 12.6289C153.079 17.007 187.851 58.8768 183.473 106.148Z"/>
</mask>
<path d="M182.477 106.056C178.15 152.777 136.767 187.144 90.0462 182.816L89.8617 184.808C137.683 189.237 180.04 154.061 184.469 106.24L182.477 106.056ZM90.0462 182.816C43.3251 178.489 8.95812 137.107 13.2853 90.3855L11.2938 90.2011C6.86478 138.022 42.0408 180.379 89.8617 184.808L90.0462 182.816ZM13.2853 90.3855C17.6124 43.6645 58.9951 9.29749 105.716 13.6246L105.901 11.6332C58.0797 7.20415 15.7228 42.3802 11.2938 90.2011L13.2853 90.3855ZM105.716 13.6246C152.437 17.9518 186.804 59.3345 182.477 106.056L184.469 106.24C188.898 58.4191 153.721 16.0622 105.901 11.6332L105.716 13.6246Z" fill="black" mask="url(#path-1-inside-1_250_351)"/>
<rect x="187.619" y="102.704" width="7.62274" height="7.62274" transform="rotate(95.2914 187.619 102.704)" stroke="black"/>
<rect x="182.335" y="128.953" width="7.62274" height="7.62274" transform="rotate(112.406 182.335 128.953)" stroke="black"/>
<rect x="169.586" y="152.371" width="7.62274" height="7.62274" transform="rotate(129.439 169.586 152.371)" stroke="black"/>
<rect x="150.37" y="171.137" width="7.62274" height="7.62274" transform="rotate(146.542 150.37 171.137)" stroke="black"/>
<rect x="126.528" y="183.392" width="7.62274" height="7.62274" transform="rotate(163.65 126.528 183.392)" stroke="black"/>
<rect x="100.127" y="188.038" width="7.62274" height="7.62274" transform="rotate(-179.129 100.127 188.038)" stroke="black"/>
<rect x="73.2041" y="184.629" width="7.62274" height="7.62274" transform="rotate(-161.724 73.2041 184.629)" stroke="black"/>
<rect x="48.8537" y="173.528" width="7.62274" height="7.62274" transform="rotate(-144.558 48.8537 173.528)" stroke="black"/>
<rect x="28.8475" y="155.725" width="7.62274" height="7.62274" transform="rotate(-127.418 28.8475 155.725)" stroke="black"/>
<rect x="14.9976" y="132.941" width="7.62274" height="7.62274" transform="rotate(-110.409 14.9976 132.941)" stroke="black"/>
<rect x="8.44171" y="106.955" width="7.62274" height="7.62274" transform="rotate(-93.0938 8.44171 106.955)" stroke="black"/>
<rect x="9.89989" y="79.9459" width="7.62274" height="7.62274" transform="rotate(-75.8838 9.89989 79.9459)" stroke="black"/>
<rect x="19.2078" y="54.7701" width="7.62274" height="7.62274" transform="rotate(-58.5827 19.2078 54.7701)" stroke="black"/>
<rect x="35.2887" y="33.7456" width="7.62274" height="7.62274" transform="rotate(-41.5822 35.2887 33.7456)" stroke="black"/>
<rect x="57.1896" y="18.0918" width="7.62274" height="7.62274" transform="rotate(-24.4365 57.1896 18.0918)" stroke="black"/>
<rect x="82.3939" y="9.67933" width="7.62274" height="7.62274" transform="rotate(-7.25682 82.3939 9.67933)" stroke="black"/>
<rect x="109.994" y="9.18709" width="7.62274" height="7.62274" transform="rotate(10.153 109.994 9.18709)" stroke="black"/>
<rect x="135.67" y="16.6729" width="7.62274" height="7.62274" transform="rotate(27.3614 135.67 16.6729)" stroke="black"/>
<rect x="157.904" y="31.3452" width="7.62274" height="7.62274" transform="rotate(44.4583 157.904 31.3452)" stroke="black"/>
<rect x="175.023" y="52.1375" width="7.62274" height="7.62274" transform="rotate(61.5638 175.023 52.1375)" stroke="black"/>
<rect x="185.223" y="77.0357" width="7.62274" height="7.62274" transform="rotate(78.8264 185.223 77.0357)" stroke="black"/>
</svg>
