<svg width="414" height="274" viewBox="0 0 414 274" fill="none" xmlns="http://www.w3.org/2000/svg">
<path d="M0 157.752L48.6167 224.92C65.8426 248.719 101.331 248.619 118.423 224.724L131.561 206.358C148.653 182.462 184.142 182.363 201.368 206.162L214.735 224.63C232.021 248.512 267.667 248.311 284.683 224.236L296.905 206.943C313.94 182.84 349.639 182.672 366.9 206.614L415 273.33" stroke="black"/>
<path d="M0 105.02L48.5418 172.503C65.7597 196.44 101.413 196.34 118.497 172.308L131.488 154.032C148.571 130 184.224 129.9 201.442 153.836L214.66 172.211C231.937 196.231 267.748 196.029 284.754 171.817L296.833 154.62C313.859 130.38 349.722 130.212 366.975 154.291L415 221.32" stroke="black"/>
<path d="M0 53.0102L48.5418 120.494C65.7597 144.43 101.413 144.33 118.497 120.298L131.488 102.022C148.571 77.9899 184.224 77.89 201.442 101.827L214.66 120.201C231.937 144.221 267.748 144.02 284.754 119.807L296.833 102.611C313.859 78.3706 349.722 78.2024 366.975 102.282L415 169.31" stroke="black"/>
<path d="M0 1.00007L48.6167 68.1678C65.8426 91.9667 101.331 91.8672 118.423 67.9719L131.561 49.6056C148.653 25.7104 184.142 25.6109 201.368 49.4098L214.735 67.8779C232.021 91.7598 267.667 91.559 284.683 67.4838L296.905 50.1906C313.94 26.0879 349.639 25.9201 366.9 49.8616L415 116.578" stroke="black"/>
<path d="M121.473 84.3014L115.727 82.8039L115.582 81.7649L116.882 80.8122L118.344 79.2098L119.792 75.7931L120.289 72.3608L118.914 67.0032L116.853 64.1187L114.153 65.6471L110.671 67.7882L108.991 66.8223L105.15 64.6145L102.814 64.2276L99.0675 63.8801L98.0693 66.7054L96.7782 70.9558L96.8135 75.8624L94.988 76.6188L91.5554 77.9386L87.3556 81.6855L84.4146 85.8372L83.4749 88.3776L82.1352 90.688L81.3036 92.122L81.5742 93.1273L84.1042 93.7319L86.7448 95.2497L91.0657 97.7335L94.9808 98.7094L99.4189 100.623L101.161 100.562L104.397 99.7666L106.859 100.12L109.145 104.089L113.226 106.435L115.324 108.704L116.479 106.712L119.078 104.807L119.817 103.532L121.843 101.51L124.107 97.6062C124.439 97.0326 127.281 95.0757 128.66 94.169L127.941 90.9937L125.554 86.6472L121.473 84.3014Z" fill="#B45B01" fill-opacity="0.67" stroke="#C73A2A" stroke-width="2"/>
<path d="M347.985 192.574L346.345 189.453L346.747 188.973L347.689 189.161L348.984 189.161L351.077 188.427L352.795 187.269L354.615 184.519L355.066 182.459L353.307 181.886L350.964 181.217L350.718 180.092L350.156 177.523L349.391 176.343L348.044 174.56L346.393 175.254L343.995 176.391L341.837 178.373L340.771 177.875L338.811 176.898L335.47 176.557L332.454 176.93L330.953 177.536L329.393 177.874L328.425 178.084L328.089 178.606L328.835 179.958L329.222 181.725L329.854 184.616L330.991 186.725L331.923 189.439L332.648 190.179L334.297 191.28L335.127 192.501L334.286 195.095L334.883 197.826L334.72 199.656L336.065 199.364L337.949 199.741L338.81 199.554L340.517 199.633L343.152 199.061C343.539 198.977 345.544 199.44 346.498 199.682L347.615 198.094L348.582 195.304L347.985 192.574Z" fill="#B45B01" fill-opacity="0.67" stroke="#C73A2A" stroke-width="2"/>
<path d="M184.034 191.884L182.176 192.449L184.3 190.893L187.284 191.689L188.51 193.078L191.362 192.777C192.111 191.845 193.735 189.823 194.245 189.195C194.755 188.567 196.022 186.025 196.592 184.832L199.612 177.571L199.31 174.731L193.493 174.559L188.671 174.652L184.841 176.602L183.348 171.852L179.06 168.373L177.578 165.961L174.787 164.049L169.862 161.355L169.919 163.918L168.479 169.265L168.628 172.277L170.351 173.798L171.376 176.725L170.523 179.894L164.067 176.155L160.335 173.78L152.719 175.144L150.133 174.454L151.466 179.799L154.43 186.215L155.629 187.702L161.032 190.205L163.92 193.735C162.493 194.416 159.156 195.988 157.223 196.831C155.29 197.674 155.159 199.748 155.335 200.679C154.068 202.217 151.595 205.307 151.833 205.371L154.718 206.14L161.556 206.479L166.33 207.752L168.693 206.897C169.379 206.195 170.911 204.835 171.547 205.005C172.184 205.174 173.1 204.782 173.478 204.564L174.233 205.721L174.959 208.568L176.899 212.058L182.513 215.36L185.403 211.355L188.777 202.383L192.168 201.271L189.976 197.927L187.657 196.247L185.725 192.335L184.034 191.884Z" fill="#D4BD3D" fill-opacity="0.67" stroke="#C73A2A" stroke-width="2"/>
<path d="M280.625 130.734L279.61 131.817L280.421 129.976L282.706 129.366L284.053 129.82L285.83 128.534C285.968 127.63 286.268 125.67 286.365 125.058C286.462 124.447 286.325 122.278 286.244 121.27L285.456 115.303L284.164 113.534L280.239 115.637L277.076 117.537L275.285 120.29L272.468 117.708L268.287 117.034L266.376 115.999L263.79 115.795L259.487 115.885L260.51 117.563L261.611 121.659L262.868 123.6L264.596 123.952L266.401 125.503L267.053 127.93L261.333 127.911L257.944 127.757L253.417 131.565L251.436 132.093L254.376 135.13L258.808 138.257L260.176 138.786L264.722 138.387L267.995 139.628C267.31 140.624 265.701 142.938 264.743 144.234C263.785 145.53 264.495 146.956 264.97 147.506C264.721 149.009 264.268 152.002 264.451 151.953L266.66 151.364L271.326 148.982L274.983 148.007L276.221 146.539C276.407 145.812 276.9 144.326 277.387 144.196C277.875 144.066 278.331 143.457 278.499 143.168L279.444 143.648L281.02 145.26L283.648 146.835L288.642 146.886L289.019 143.128L287.808 135.891L289.63 133.861L286.89 132.478L284.706 132.247L281.92 130.389L280.625 130.734Z" fill="#D4BD3D" fill-opacity="0.67" stroke="#C73A2A" stroke-width="2"/>
</svg>
