<svg width="166" height="553" viewBox="0 0 166 553" fill="none" xmlns="http://www.w3.org/2000/svg">
<rect width="166" height="550" fill="white"/>
<path d="M113 147L48.5294 193.579C24.6899 210.802 24.7895 246.34 48.7253 263.429L64.2747 274.531C88.2105 291.621 88.3101 327.158 64.4705 344.382L48.82 355.689C24.8975 372.973 25.0985 408.667 49.2141 425.68L63.6888 435.892C87.832 452.924 88 488.671 64.0178 505.93L0 552" stroke="black"/>
<path d="M138 235.767L93.8225 267.769C72.2715 283.38 72.3617 315.522 94 331.012V331.012C115.638 346.502 115.441 378.852 93.8897 394.463V394.463C72.4998 409.958 72.3934 442.097 93.9566 457.349V457.349C115.545 472.62 115.695 504.598 94.2515 520.07L50 552" stroke="black"/>
<path d="M51.3564 267.938L50.5865 267.259L51.8667 267.78L52.3536 269.351L52.0869 270.294L53.0192 271.497C53.6392 271.573 54.984 271.737 55.4033 271.791C55.8226 271.844 57.2958 271.701 57.98 271.623L62.0201 270.944L63.1844 270.009L61.6284 267.336L60.2346 265.185L58.3027 264.005L59.9727 261.996L60.2998 259.082L60.9446 257.735L61.0027 255.938L60.8057 252.958L59.6947 253.704L56.9394 254.558L55.6569 255.472L55.4713 256.677L54.4716 257.963L52.8389 258.469L52.6721 254.504L52.6698 252.152L49.9333 249.098L49.5112 247.737L47.5352 249.842L45.5451 252.984L45.2273 253.943L45.6423 257.085L44.9001 259.381C44.2005 258.929 42.573 257.865 41.6602 257.23C40.7474 256.594 39.7986 257.118 39.4384 257.459C38.4071 257.32 36.3543 257.073 36.3932 257.199L36.864 258.717L38.6334 261.898L39.4125 264.411L40.4515 265.237C40.9525 265.349 41.9803 265.658 42.0842 265.993C42.1881 266.328 42.6176 266.631 42.8194 266.74L42.5225 267.406L41.4741 268.535L40.4837 270.391L40.6065 273.854L43.1785 274.032L48.0698 273.032L49.51 274.249L50.3659 272.32L50.4541 270.8L51.6324 268.828L51.3564 267.938Z" fill="#A6C2AC" fill-opacity="0.67" stroke="#C73A2A"/>
<path d="M98.2567 339.124L98.0566 338.278L98.6867 339.264L98.2555 340.588L97.6099 341.11L97.6663 342.397C98.0579 342.752 98.907 343.523 99.1707 343.765C99.4343 344.007 100.523 344.629 101.034 344.909L104.158 346.415L105.42 346.338L105.651 343.729L105.739 341.561L104.981 339.801L107.117 339.229L108.768 337.375L109.872 336.759L110.791 335.545L112.112 333.388L110.979 333.361L108.657 332.605L107.323 332.61L106.606 333.352L105.287 333.752L103.91 333.304L105.734 330.481L106.882 328.854L106.483 325.406L106.857 324.258L104.462 324.747L101.55 325.946L100.862 326.454L99.6126 328.829L97.9771 330.053C97.7147 329.398 97.1099 327.867 96.7894 326.982C96.4689 326.097 95.5571 325.995 95.1413 326.055C94.4965 325.454 93.1984 324.28 93.164 324.386L92.7471 325.665L92.415 328.729L91.7251 330.847L92.0397 331.926C92.3309 332.248 92.8905 332.964 92.7985 333.247C92.7065 333.529 92.8553 333.948 92.9412 334.123L92.4105 334.438L91.1342 334.705L89.542 335.504L87.9342 337.958L89.625 339.338L93.495 341.038L93.8952 342.584L95.4301 341.668L96.2338 340.661L98.0124 339.874L98.2567 339.124Z" fill="#A6C2AC" fill-opacity="0.67" stroke="#C73A2A"/>
</svg>
