<svg width="166" height="553" viewBox="0 0 166 553" fill="none" xmlns="http://www.w3.org/2000/svg">
<rect width="166" height="550" fill="white"/>
<path d="M113 333L56.4124 355.107C36.4197 362.918 36.5166 391.245 56.5403 398.975V398.975C76.5355 406.695 76.4331 435.059 56.4689 442.858V442.858C36.6023 450.62 36.516 478.85 56.444 486.452V486.452C76.3863 494.059 76.4803 522.238 56.5892 529.979L0 552" stroke="black"/>
<path d="M138 381L93.9315 398.262C78.3358 404.371 78.4113 426.468 94.0313 432.515V432.515C109.629 438.553 109.549 460.68 93.9755 466.78V466.78C78.4782 472.85 78.411 494.873 93.9564 500.819V500.819C109.513 506.769 109.586 528.751 94.07 534.805L50 552" stroke="black"/>
</svg>
